{
  "accessors": [
    {
      "bufferView": 2,
      "componentType": 5126,
      "count": 65534,
      "max": [
        0.24640896916389465,
        0.02687503769993782,
        0.24559414386749268
      ],
      "min": [
        -0.24619132280349731,
        -0.022479183971881866,
        -0.2462545782327652
      ],
      "type": "VEC3"
    },
    {
      "bufferView": 2,
      "byteOffset": 786408,
      "componentType": 5126,
      "count": 65534,
      "max": [
        0.9999991655349731,
        0.9999999403953552,
        0.9999865889549255
      ],
      "min": [
        -0.9999992251396179,
        -0.9999993443489075,
        -0.9999865889549255
      ],
      "type": "VEC3"
    },
    {
      "bufferView": 1,
      "componentType": 5126,
      "count": 65534,
      "max": [
        0.9999150633811951,
        0.9985116720199585
      ],
      "min": [
        0.0003126034571323544,
        0.0014889138983562589
      ],
      "type": "VEC2"
    },
    {
      "bufferView": 0,
      "componentType": 5125,
      "count": 84150,
      "type": "SCALAR"
    },
    {
      "bufferView": 2,
      "byteOffset": 1572816,
      "componentType": 5126,
      "count": 65532,
      "max": [
        0.24634891748428345,
        0.02687503769993782,
        0.24559414386749268
      ],
      "min": [
        -0.24619132280349731,
        -0.02256331965327263,
        -0.24609261751174927
      ],
      "type": "VEC3"
    },
    {
      "bufferView": 2,
      "byteOffset": 2359200,
      "componentType": 5126,
      "count": 65532,
      "max": [
        0.5177357792854309,
        0.9999994039535522,
        0.999981164932251
      ],
      "min": [
        -0.7257088422775269,
        -0.9999992251396179,
        -0.9999985694885254
      ],
      "type": "VEC3"
    },
    {
      "bufferView": 1,
      "byteOffset": 524272,
      "componentType": 5126,
      "count": 65532,
      "max": [
        0.9702178239822388,
        0.9984959363937378
      ],
      "min": [
        0.015574047341942787,
        0.009452713653445244
      ],
      "type": "VEC2"
    },
    {
      "bufferView": 0,
      "byteOffset": 336600,
      "componentType": 5125,
      "count": 65532,
      "type": "SCALAR"
    },
    {
      "bufferView": 2,
      "byteOffset": 3145584,
      "componentType": 5126,
      "count": 65533,
      "max": [
        0.24640896916389465,
        0.026777280494570732,
        0.24543225765228271
      ],
      "min": [
        -0.24615129828453064,
        -0.02256331965327263,
        -0.2463356852531433
      ],
      "type": "VEC3"
    },
    {
      "bufferView": 2,
      "byteOffset": 3931980,
      "componentType": 5126,
      "count": 65533,
      "max": [
        0.9999992251396179,
        0.9999988079071045,
        0.9999865889549255
      ],
      "min": [
        -0.9999991059303284,
        -0.999999463558197,
        -0.9999865889549255
      ],
      "type": "VEC3"
    },
    {
      "bufferView": 1,
      "byteOffset": 1048528,
      "componentType": 5126,
      "count": 65533,
      "max": [
        0.999971866607666,
        0.998511016368866
      ],
      "min": [
        4.574549893732183e-05,
        0.0014883509138599038
      ],
      "type": "VEC2"
    },
    {
      "bufferView": 0,
      "byteOffset": 598728,
      "componentType": 5125,
      "count": 86949,
      "type": "SCALAR"
    },
    {
      "bufferView": 2,
      "byteOffset": 4718376,
      "componentType": 5126,
      "count": 3831,
      "max": [
        0.24626117944717407,
        0.026196060702204704,
        0.21917423605918884
      ],
      "min": [
        -0.2458188235759735,
        -0.02243814431130886,
        -0.08622431755065918
      ],
      "type": "VEC3"
    },
    {
      "bufferView": 2,
      "byteOffset": 4764348,
      "componentType": 5126,
      "count": 3831,
      "max": [
        0.9999989867210388,
        0.005349004175513983,
        0.9999865293502808
      ],
      "min": [
        -0.9999980330467224,
        -0.005347095895558596,
        -0.9999865293502808
      ],
      "type": "VEC3"
    },
    {
      "bufferView": 1,
      "byteOffset": 1572792,
      "componentType": 5126,
      "count": 3831,
      "max": [
        0.9998931288719177,
        0.998510479927063
      ],
      "min": [
        0.0010650651529431343,
        0.021593354642391205
      ],
      "type": "VEC2"
    },
    {
      "bufferView": 0,
      "byteOffset": 946524,
      "componentType": 5125,
      "count": 5745,
      "type": "SCALAR"
    },
    {
      "bufferView": 3,
      "componentType": 5126,
      "count": 321,
      "max": [
        6.666666507720947
      ],
      "min": [
        0.0
      ],
      "type": "SCALAR"
    },
    {
      "bufferView": 4,
      "componentType": 5126,
      "count": 321,
      "max": [
        0.5000000596046448,
        0.7071067094802856,
        0.7071068286895752,
        0.7071067094802856
      ],
      "min": [
        -0.7071068286895752,
        -0.4999999403953552,
        -0.5,
        -0.5
      ],
      "type": "VEC4"
    }
  ],
  "animations": [
    {
      "channels": [
        {
          "sampler": 0,
          "target": {
            "node": 4,
            "path": "rotation"
          }
        }
      ],
      "name": "16783_Zeus_v1_NEW.001|16783_Zeus_v1_NEW.001Action.003",
      "samplers": [
        {
          "input": 16,
          "interpolation": "LINEAR",
          "output": 17
        }
      ]
    }
  ],
  "asset": {
    "extras": {
      "author": "tindautucoin24h (https://sketchfab.com/tindautucoin24h)",
      "license": "CC-BY-4.0 (http://creativecommons.org/licenses/by/4.0/)",
      "source": "https://sketchfab.com/3d-models/myetherwallet-la-gi-huong-dan-thiet-lap-cu-the-aa9ab707c03b41738b9265c26ee8a45e",
      "title": "Myetherwallet là gì? Hướng dẫn thiết lập cụ thể"
    },
    "generator": "Sketchfab-10.58.0",
    "version": "2.0"
  },
  "bufferViews": [
    {
      "buffer": 0,
      "byteLength": 969504,
      "name": "floatBufferViews",
      "target": 34963
    },
    {
      "buffer": 0,
      "byteLength": 1603440,
      "byteOffset": 969504,
      "byteStride": 8,
      "name": "floatBufferViews",
      "target": 34962
    },
    {
      "buffer": 0,
      "byteLength": 4810320,
      "byteOffset": 2572944,
      "byteStride": 12,
      "name": "floatBufferViews",
      "target": 34962
    },
    {
      "buffer": 0,
      "byteLength": 1284,
      "byteOffset": 7383264,
      "name": "floatBufferViews"
    },
    {
      "buffer": 0,
      "byteLength": 5136,
      "byteOffset": 7384548,
      "byteStride": 16,
      "name": "floatBufferViews"
    }
  ],
  "buffers": [
    {
      "byteLength": 7389684,
      "uri": "scene.bin"
    }
  ],
  "materials": [
    {
      "doubleSided": true,
      "name": "oro2",
      "pbrMetallicRoughness": {
        "baseColorFactor": [
          0.8,
          0.506607,
          0.157991,
          1.0
        ],
        "metallicFactor": 0.0,
        "roughnessFactor": 0.8457503329744536
      }
    }
  ],
  "meshes": [
    {
      "name": "16783_Zeus_v1_NEW.001_oro2_0",
      "primitives": [
        {
          "attributes": {
            "NORMAL": 1,
            "POSITION": 0,
            "TEXCOORD_0": 2
          },
          "indices": 3,
          "material": 0,
          "mode": 4
        }
      ]
    },
    {
      "name": "16783_Zeus_v1_NEW.001_oro2_0",
      "primitives": [
        {
          "attributes": {
            "NORMAL": 5,
            "POSITION": 4,
            "TEXCOORD_0": 6
          },
          "indices": 7,
          "material": 0,
          "mode": 4
        }
      ]
    },
    {
      "name": "16783_Zeus_v1_NEW.001_oro2_0",
      "primitives": [
        {
          "attributes": {
            "NORMAL": 9,
            "POSITION": 8,
            "TEXCOORD_0": 10
          },
          "indices": 11,
          "material": 0,
          "mode": 4
        }
      ]
    },
    {
      "name": "16783_Zeus_v1_NEW.001_oro2_0",
      "primitives": [
        {
          "attributes": {
            "NORMAL": 13,
            "POSITION": 12,
            "TEXCOORD_0": 14
          },
          "indices": 15,
          "material": 0,
          "mode": 4
        }
      ]
    }
  ],
  "nodes": [
    {
      "children": [
        1
      ],
      "matrix": [
        1.0,
        0.0,
        0.0,
        0.0,
        0.0,
        2.220446049250313e-16,
        -1.0,
        0.0,
        0.0,
        1.0,
        2.220446049250313e-16,
        0.0,
        0.0,
        0.0,
        0.0,
        1.0
      ],
      "name": "Sketchfab_model"
    },
    {
      "children": [
        2
      ],
      "matrix": [
        1.0,
        0.0,
        0.0,
        0.0,
        0.0,
        0.0,
        1.0,
        0.0,
        0.0,
        -1.0,
        0.0,
        0.0,
        0.0,
        0.0,
        0.0,
        1.0
      ],
      "name": "Bitcoin.fbx"
    },
    {
      "children": [
        3
      ],
      "name": "Object_2"
    },
    {
      "children": [
        4
      ],
      "name": "RootNode"
    },
    {
      "children": [
        5,
        6,
        7,
        8
      ],
      "name": "16783_Zeus_v1_NEW.001",
      "rotation": [
        -0.7071068286895752,
        0.0,
        0.0,
        0.7071067094802856
      ],
      "scale": [
        1096.736083984375,
        1096.736083984375,
        1096.736083984375
      ]
    },
    {
      "mesh": 0,
      "name": "16783_Zeus_v1_NEW.001_oro2_0"
    },
    {
      "mesh": 1,
      "name": "16783_Zeus_v1_NEW.001_oro2_0"
    },
    {
      "mesh": 2,
      "name": "16783_Zeus_v1_NEW.001_oro2_0"
    },
    {
      "mesh": 3,
      "name": "16783_Zeus_v1_NEW.001_oro2_0"
    }
  ],
  "scene": 0,
  "scenes": [
    {
      "name": "Sketchfab_Scene",
      "nodes": [
        0
      ]
    }
  ]
}
